<?xml version="1.0" encoding="utf-8"?>
<!-- Generator: Adobe Illustrator 27.5.0, SVG Export Plug-In . SVG Version: 6.00 Build 0)  -->
<svg version="1.1" id="_x2018_лой_x5F_1" xmlns="http://www.w3.org/2000/svg" xmlns:xlink="http://www.w3.org/1999/xlink"
	 x="0px" y="0px" viewBox="0 0 2800 2000" style="enable-background:new 0 0 2800 2000;" xml:space="preserve">
<rect style="fill:#FFFFFF;" width="2800" height="2000"/>
<g>
	<path style="fill:#EBF3FA;" d="M308.316,1836.603c0,0-174.897-220.271-62.366-533.809
		c94.779-264.075,365.412-94.327,291.296-428.173c-67.229-302.828,1.178-565.29,626.178-701.93
		c403.42-88.198,1032.876-118.545,891.625,548.946c-50.288,237.64,756.612,40.094,418.313,1114.966H308.316z"/>
	<path style="fill:#CDE0FB;" d="M2058.198,1539.105c-10.785-58.75-109.234-48.855-109.234-48.855s-74.194,95.075-93.545,95.877
		c-19.352,0.803,47.562-93.673,47.562-93.673c-36.81-6.676-135.153,30.949-135.153,30.949s-3.768,117.804-22.721,113.817
		c-18.952-3.986,8.657-104.139,8.657-104.139c-36.806,7.787-73.804,46.896-73.804,46.896
		c-47.567,64.746,38.028,122.483,38.028,122.483s-2.187,40.797-31.204,85.391l-0.001,0.001c0,0-6.39,8.147-13.374,22.319l9.79,0.813
		c1.018-2.559,2.11-5.023,3.288-7.378c0.002-0.02,0.009-0.031,0.022-0.043c0.018-0.034,0.035-0.067,0.053-0.102
		c0.796-1.457,1.938-3.529,3.357-6.052c0.002-0.004,0.004-0.007,0.006-0.01c0.001-0.006,0.007-0.006,0.008-0.012
		c3.477-5.607,5.857-9.765,7.396-12.781c0.005-0.009,0.009-0.019,0.012-0.028c10.49-17.634,25.392-40.509,34.42-44.815
		c0,0-0.956-1.614-1.722-4.665c0.549,1.487,1.122,3.038,1.722,4.665c13.773,37.303,97.065,50.253,144.545,44.559
		c47.479-5.695,28.225-20.555,4.864-44.015s-76.497-22.204-91.361-31.877s8.575-16.161,39.498-11.18
		c30.924,4.98,43.896,37.396,93.773,46.364c49.876,8.967,96.041-82.412,96.041-82.412c-35.608,7.888-96.261-16.439-97.659-28.608
		c-1.399-12.169,90.671-3.31,105.333-5.706C2041.457,1624.493,2068.982,1597.854,2058.198,1539.105z"/>
	<path style="fill:#CDE0FB;" d="M315.031,1699.531c-46.34-70.342,63.556-156.322,63.556-156.322s168.307,24.416,188.793,6.352
		c20.486-18.063-139.822-48.973-139.822-48.973c30.965-42.711,167.809-100.354,167.809-100.354s118.774,116.272,134.184,93.722
		c15.408-22.551-110.422-97.588-110.422-97.588c45.074-27.98,120.904-24.26,120.904-24.26
		c111.604,19.515,80.784,161.816,80.784,161.816s42.031,39.407,115.086,56.5h0.003c0,0,14.455,2.062,35.394,9.676l-9.174,10.381
		c-3.533-1.613-7.05-3.056-10.548-4.305c-0.02-0.018-0.039-0.022-0.064-0.021c-0.051-0.019-0.102-0.035-0.152-0.054
		c-2.233-0.706-5.418-1.701-9.324-2.886c-0.005-0.001-0.01-0.002-0.015-0.004c-0.006-0.006-0.012,0.001-0.019-0.005
		c-9.011-2.315-15.491-4.226-20-5.797c-0.015-0.004-0.028-0.011-0.04-0.018c-27.887-7.721-128.573,133.824-182.473,174.351
		c-53.9,40.525-48.792,6.61-47.896-40.069c0.896-46.679,56.224-97.245,61.921-121.597c5.698-24.352-24.499-8.089-51.125,27.154
		c-26.626,35.243-8.208,80.907-50.243,138.7c-42.034,57.794-178.196,9.795-178.196,9.795
		c43.952-26.712,81.973-110.658,71.524-124.414c-10.449-13.755-95.55,85.096-112.818,96.962
		C415.388,1770.14,361.372,1769.872,315.031,1699.531z"/>
	<g>
		<path style="fill:#CDE0FB;" d="M1710.274,939.446c0,0,95.067-193.837,148.239-176.634
			C1911.686,780.014,1710.274,939.446,1710.274,939.446z"/>
		<path style="fill:#CDE0FB;" d="M1641.904,1027.144c0,0,227.734-223.222,316.23-182.516s-53.943,84.362-108.272,96.252
			C1795.533,952.769,1641.904,1027.144,1641.904,1027.144z"/>
	</g>
	<g>
		<path style="fill:#DFEBFD;" d="M942.878,984.455c0,0-95.068-193.837-148.24-176.635
			C741.466,825.023,942.878,984.455,942.878,984.455z"/>
		<path style="fill:#DFEBFD;" d="M1011.248,1072.152c0,0-227.734-223.223-316.231-182.516
			c-88.497,40.707,53.943,84.362,108.272,96.252C857.619,997.778,1011.248,1072.152,1011.248,1072.152z"/>
	</g>
	<path style="fill:#DFEBFD;" d="M768.755,473.93c32.522-72.645,156.84-28.731,156.84-28.731s66.006,146.517,90.803,153.669
		c24.796,7.152-31.973-136.288-31.973-136.288c49.758,2.988,165.179,82.765,165.179,82.765s-32.343,153.688-6.549,154.517
		c25.794,0.828,21.695-137.545,21.695-137.545c45.185,21.71,80.724,84.026,80.724,84.026
		c41.12,98.844-87.927,146.542-87.927,146.542s-10.06,53.503,13.415,120.398l0.001,0.002c0,0,5.697,12.566,10.262,33.117
		l-12.931-2.039c-0.509-3.634-1.145-7.169-1.926-10.59c0.004-0.025-0.002-0.043-0.016-0.063c-0.011-0.05-0.024-0.098-0.035-0.148
		c-0.57-2.138-1.396-5.182-2.436-8.896c-0.001-0.005-0.003-0.009-0.004-0.014c0.001-0.009-0.007-0.01-0.005-0.018
		c-2.73-8.357-4.499-14.49-5.536-18.881c-0.004-0.014-0.006-0.027-0.007-0.041c-8.008-26.143-20.071-60.462-30.398-68.89
		c0,0,1.749-1.787,3.703-5.494c-1.181,1.752-2.412,3.579-3.703,5.494c-29.615,43.938-141.529,34.387-201.193,12.014
		c-59.663-22.373-30.043-35.525,7.609-58.513c37.653-22.988,106.042-4.576,128.34-12.401c22.298-7.825-5.995-23.629-47.599-26.951
		c-41.604-3.322-68.64,34.542-136.039,30.392c-67.398-4.149-98.289-137.026-98.289-137.026
		c43.604,21.461,129.804,9.132,135.46-6.179c5.656-15.311-116.329-32.932-134.552-40.667
		C763.448,589.755,736.232,546.575,768.755,473.93z"/>
	<path style="fill:#F78248;" d="M1775.154,729.407v1085.381c0,10.521-8.529,19.062-19.062,19.062H919.654
		c-10.533,0-19.072-8.54-19.072-19.062V729.407c0-10.533,8.54-19.061,19.072-19.061h836.438
		C1766.625,710.346,1775.154,718.875,1775.154,729.407z"/>
	<path style="fill:#EA642F;" d="M990.786,710.346V1833.85h-71.131c-10.533,0-19.072-8.54-19.072-19.062V729.407
		c0-10.533,8.54-19.061,19.072-19.061H990.786z"/>
	<g>
		<g>
			<path style="fill:#FFEDDC;" d="M1255.371,1021.486V983h14.817v38.101c0,10.969,5.485,16.645,14.529,16.645
				c9.045,0,14.529-5.484,14.529-16.164V983h14.817v38.005c0,20.397-11.45,30.403-29.538,30.403
				C1266.436,1051.409,1255.371,1041.307,1255.371,1021.486z"/>
			<path style="fill:#FFEDDC;" d="M1324.544,1040.537l8.755-10.487c6.062,5.003,12.412,8.178,20.109,8.178
				c6.062,0,9.718-2.405,9.718-6.542c0-3.753-2.309-5.677-13.567-8.563c-13.566-3.463-22.321-7.216-22.321-20.782
				c0-12.219,9.814-20.301,23.573-20.301c9.813,0,18.185,3.079,25.016,8.563l-7.697,11.161c-5.965-4.137-11.835-6.639-17.512-6.639
				c-5.675,0-8.659,2.598-8.659,6.062c0,4.426,2.887,5.869,14.529,8.852c13.662,3.56,21.359,8.467,21.359,20.397
				c0,13.374-10.199,20.879-24.726,20.879C1342.921,1051.313,1332.627,1047.753,1324.544,1040.537z"/>
			<path style="fill:#FFEDDC;" d="M1390.737,983h50.801v13.182h-36.079v13.663h31.75v13.181h-31.75v14.145h36.561v13.182h-51.282
				V983z"/>
			<path style="fill:#FFEDDC;" d="M1455.197,983h30.789c8.563,0,15.202,2.406,19.628,6.831c3.753,3.753,5.772,9.045,5.772,15.587
				c0,10.872-5.869,17.703-14.432,20.879l16.453,24.054h-17.319l-14.625-21.553h-11.449v21.553h-14.817V983z M1485.024,1015.714
				c7.216,0,11.353-3.849,11.353-9.718c0-6.35-4.425-9.622-11.641-9.622h-14.722v19.339H1485.024z"/>
		</g>
		<g>
			<path style="fill:#FFEDDC;" d="M1169.264,1084.116h15.972l17.704,28.479l17.703-28.479h15.972v67.351h-14.721v-43.97
				l-18.954,28.768h-0.386l-18.761-28.479v43.682h-14.529V1084.116z"/>
			<path style="fill:#FFEDDC;" d="M1275.865,1083.635h13.663l28.864,67.832h-15.49l-6.158-15.106h-28.48l-6.158,15.106H1247
				L1275.865,1083.635z M1291.452,1123.275l-8.948-21.841l-8.947,21.841H1291.452z"/>
			<path style="fill:#FFEDDC;" d="M1328.778,1084.116h13.663l31.558,41.468v-41.468h14.625v67.351h-12.605l-32.616-42.815v42.815
				h-14.625V1084.116z"/>
			<path style="fill:#FFEDDC;" d="M1403.726,1122.602v-38.485h14.816v38.101c0,10.97,5.485,16.646,14.529,16.646
				s14.528-5.485,14.528-16.165v-38.582h14.817v38.005c0,20.396-11.45,30.404-29.538,30.404S1403.726,1142.423,1403.726,1122.602z"
				/>
			<path style="fill:#FFEDDC;" d="M1498.205,1083.635h13.663l28.863,67.832h-15.489l-6.158-15.106h-28.479l-6.158,15.106h-15.105
				L1498.205,1083.635z M1513.792,1123.275l-8.948-21.841l-8.947,21.841H1513.792z"/>
			<path style="fill:#FFEDDC;" d="M1551.118,1084.116h14.817v53.88h33.579v13.471h-48.396V1084.116z"/>
		</g>
	</g>
	<g>
		<g style="opacity:0.7;">
			<path style="fill:#EA642F;" d="M1189.048,1424.33l15.293-8.435c1.28-0.69,2.837-0.604,4.034,0.22
				c1.523,1.058,3.102,2.059,4.735,3.004c3.035,1.756,6.128,3.259,9.282,4.467c1.477,0.568,2.459,1.951,2.475,3.523l0.339,18.249
				c0.018,1.948,1.55,3.562,3.523,3.69l16.648,1.134c1.888,0.123,3.547-1.185,3.891-3.033l2.946-16.546
				c0.252-1.616,1.565-2.859,3.235-3.082c7.042-0.945,13.922-3.02,20.37-6.136c1.557-0.751,3.469-0.326,4.575,0.996l6.558,7.845
				c1.259,1.477,3.441,1.814,5.078,0.736l13.754-9.237c0.285-0.188,0.537-0.394,0.748-0.646c1.044-1.158,1.261-2.903,0.467-4.309
				l-6.287-11.432l-1.538-2.783c1.916-2.437,3.698-5.06,5.291-7.814c2.147-3.711,3.91-7.557,5.273-11.436
				c0.525-1.479,1.885-2.497,3.457-2.513l14.701-0.257c2.009-0.049,3.658-1.604,3.78-3.604l0.87-12.729l0.239-3.647
				c0.138-1.99-1.247-3.782-3.207-4.123l-13.826-2.474c-1.606-0.269-2.861-1.523-3.089-3.108c-0.762-4.733-2.016-9.378-3.76-13.821
				c-0.121-0.4-0.27-0.75-0.427-1.127c-0.061-0.123-0.095-0.254-0.13-0.384c-0.449-1.47,0.049-3.054,1.236-4.04l12.714-10.675
				c0.152-0.11,0.28-0.256,0.399-0.386c1.137-1.279,1.289-3.217,0.328-4.676l-9.188-13.725c-1.111-1.656-3.291-2.19-5.056-1.23
				l-15.948,8.804c-1.344,0.764-3.007,0.594-4.203-0.384c-2.646-2.125-5.498-4.083-8.549-5.849
				c-1.617-0.936-3.254-1.795-4.915-2.579c-1.344-0.646-2.218-1.987-2.239-3.475l-0.332-17.54c-0.027-1.931-1.543-3.535-3.49-3.671
				l-16.471-1.097c-1.989-0.139-3.772,1.229-4.132,3.223l-2.334,13.092c-0.312,1.757-1.765,3.052-3.532,3.175
				c-6.949,0.404-13.786,1.909-20.273,4.408c-1.523,0.615-3.289,0.167-4.355-1.111l-9.616-11.463
				c-1.289-1.538-3.533-1.846-5.206-0.744l-13.68,9.147c-1.646,1.096-2.164,3.283-1.208,4.981l0.36,0.67l7.311,13.278
				c0.784,1.423,0.602,3.145-0.447,4.388l-0.009,0.016c-2.512,2.972-4.801,6.205-6.824,9.702c-1.079,1.863-2.039,3.752-2.933,5.679
				c-0.603,1.346-1.919,2.213-3.39,2.243l-14.923,0.261c-2.042,0.029-3.72,1.635-3.851,3.65l-1.102,16.402
				c-0.029,0.468,0.038,0.924,0.148,1.341c0.404,1.356,1.559,2.443,3.011,2.711l11.049,1.945c1.351,0.253,2.471,1.209,2.932,2.467
				c0.117,0.331,0.197,0.687,0.226,1.056c0.567,8.913,2.915,17.604,6.893,25.606c0.694,1.349,0.459,2.974-0.49,4.12
				c-0.138,0.162-0.292,0.314-0.463,0.458l-10.303,8.636c-1.493,1.25-1.805,3.425-0.727,5.062l0.211,0.32l8.943,13.386
				C1185.067,1424.779,1187.272,1425.306,1189.048,1424.33z M1272.845,1336.38c1.864,1.915,3.627,4.08,5.238,6.509
				c3.064,4.636,5.329,13.013,4.957,18.565c-0.037,0.595-0.089,1.181-0.142,1.767c-3.656,35.62-47.19,46.824-67.548,16.752
				c-2.654-3.936-4.693-10.421-5.139-15.853c-0.085-1.261-0.114-2.466-0.024-3.536c0.368-5.049,1.517-9.624,3.303-13.699
				C1223.68,1323.677,1254.104,1317.325,1272.845,1336.38z"/>
		</g>
		<g>
			<path style="fill:#FFEDDC;" d="M1341.8,1304.088l9.57-3.255c0.799-0.263,1.678-0.056,2.276,0.535
				c0.761,0.757,1.558,1.487,2.393,2.191c1.551,1.309,3.161,2.479,4.835,3.487c0.784,0.474,1.204,1.361,1.053,2.259l-1.658,10.433
				c-0.187,1.111,0.522,2.187,1.633,2.46l9.371,2.335c1.063,0.262,2.141-0.314,2.524-1.334l3.357-9.129
				c0.308-0.895,1.183-1.47,2.156-1.427c4.108,0.175,8.239-0.309,12.229-1.43c0.963-0.27,2.01,0.166,2.506,1.031l2.94,5.136
				c0.567,0.969,1.777,1.383,2.819,0.935l8.774-3.868c0.182-0.078,0.346-0.17,0.492-0.292c0.712-0.554,1.013-1.526,0.703-2.407
				l-2.423-7.152l-0.594-1.741c1.339-1.194,2.62-2.508,3.808-3.916c1.6-1.896,2.994-3.909,4.165-5.98
				c0.449-0.79,1.327-1.232,2.225-1.081l8.402,1.345c1.15,0.177,2.247-0.543,2.52-1.669l1.787-7.165l0.506-2.055
				c0.281-1.119-0.326-2.281-1.408-2.674l-7.627-2.813c-0.888-0.315-1.477-1.158-1.445-2.084c0.046-2.774-0.197-5.548-0.74-8.257
				c-0.028-0.24-0.077-0.455-0.128-0.686c-0.022-0.077-0.029-0.154-0.036-0.232c-0.106-0.883,0.338-1.734,1.115-2.176l8.327-4.793
				c0.098-0.048,0.186-0.117,0.267-0.18c0.777-0.613,1.061-1.702,0.661-2.631l-3.843-8.752c-0.465-1.057-1.652-1.582-2.756-1.215
				l-9.98,3.399c-0.843,0.298-1.773,0.033-2.355-0.646c-1.292-1.479-2.718-2.885-4.277-4.2c-0.826-0.696-1.673-1.353-2.539-1.968
				c-0.7-0.504-1.063-1.357-0.923-2.207l1.591-10.028c0.18-1.103-0.521-2.17-1.616-2.445l-9.274-2.296
				c-1.119-0.281-2.274,0.318-2.682,1.417l-2.658,7.223c-0.356,0.97-1.315,1.56-2.334,1.45c-4-0.475-8.049-0.311-11.999,0.455
				c-0.931,0.196-1.891-0.238-2.369-1.074l-4.316-7.508c-0.579-1.008-1.826-1.41-2.891-0.952l-8.723,3.824
				c-1.049,0.457-1.566,1.651-1.194,2.716l0.137,0.419l2.818,8.308c0.303,0.89,0.024,1.853-0.7,2.454l-0.007,0.008
				c-1.733,1.438-3.365,3.049-4.873,4.836c-0.803,0.953-1.542,1.932-2.248,2.938c-0.48,0.705-1.318,1.066-2.159,0.935l-8.529-1.366
				c-1.167-0.19-2.285,0.555-2.564,1.689l-2.292,9.234c-0.064,0.264-0.072,0.53-0.051,0.779c0.092,0.813,0.64,1.55,1.44,1.85
				l6.098,2.229c0.744,0.281,1.285,0.939,1.421,1.703c0.032,0.201,0.042,0.411,0.021,0.624c-0.582,5.137-0.125,10.326,1.329,15.291
				c0.259,0.838-0.04,1.74-0.697,2.297c-0.095,0.078-0.198,0.15-0.31,0.214l-6.747,3.876c-0.978,0.561-1.376,1.769-0.928,2.811
				l0.088,0.203l3.738,8.535C1339.486,1303.939,1340.689,1304.464,1341.8,1304.088z M1398.47,1262.476
				c0.868,1.28,1.653,2.693,2.325,4.24c1.275,2.952,1.716,7.955,0.94,11.081c-0.081,0.336-0.171,0.664-0.26,0.993
				c-5.697,19.925-31.64,21.893-40.188,2.691c-1.113-2.512-1.617-6.414-1.32-9.554c0.079-0.728,0.185-1.417,0.345-2.018
				c0.722-2.84,1.841-5.33,3.271-7.471C1371.745,1250.25,1389.725,1249.717,1398.47,1262.476z"/>
		</g>
		<g>
			<path style="fill:#EA642F;" d="M1369.867,1559.256l24.807-12.053c2.075-0.984,4.524-0.721,6.343,0.677
				c2.316,1.792,4.724,3.5,7.222,5.123c4.644,3.017,9.398,5.64,14.273,7.803c2.282,1.017,3.72,3.278,3.615,5.759l-0.954,28.808
				c-0.131,3.073,2.154,5.742,5.255,6.106l26.163,3.147c2.967,0.349,5.69-1.578,6.382-4.466l5.998-25.854
				c0.529-2.527,2.702-4.381,5.354-4.596c11.183-0.916,22.202-3.625,32.625-8.014c2.518-1.057,5.498-0.231,7.135,1.944l9.701,12.907
				c1.864,2.432,5.278,3.143,7.947,1.575l22.445-13.444c0.464-0.272,0.878-0.577,1.232-0.957c1.74-1.74,2.226-4.476,1.088-6.758
				l-8.982-18.54l-2.197-4.515c3.22-3.686,6.244-7.678,8.982-11.892c3.689-5.678,6.782-11.599,9.249-17.604
				c0.95-2.289,3.178-3.784,5.658-3.681l23.205,0.795c3.172,0.088,5.899-2.23,6.255-5.373l2.41-20.002l0.675-5.734
				c0.381-3.126-1.657-6.065-4.72-6.764l-21.603-5.029c-2.511-0.555-4.388-2.636-4.618-5.153
				c-0.814-7.527-2.413-14.954-4.801-22.104c-0.158-0.641-0.365-1.206-0.581-1.813c-0.086-0.199-0.13-0.408-0.174-0.616
				c-0.587-2.354,0.327-4.812,2.28-6.27l20.922-15.797c0.249-0.161,0.463-0.381,0.661-0.575c1.897-1.926,2.296-4.969,0.898-7.348
				l-13.368-22.396c-1.617-2.701-5.01-3.722-7.873-2.353l-25.869,12.583c-2.183,1.094-4.791,0.69-6.597-0.949
				c-3.998-3.566-8.336-6.888-13.004-9.921c-2.474-1.607-4.986-3.097-7.54-4.469c-2.066-1.128-3.336-3.316-3.247-5.662l0.909-27.689
				c0.114-3.047-2.146-5.7-5.205-6.073l-25.886-3.075c-3.126-0.381-6.049,1.632-6.78,4.746l-4.75,20.455
				c-0.636,2.745-3.033,4.668-5.829,4.718c-10.991,0.071-21.896,1.886-32.331,5.297c-2.453,0.847-5.2-0.005-6.777-2.106
				l-14.229-18.863c-1.907-2.532-5.421-3.199-8.148-1.599l-22.321,13.31c-2.685,1.592-3.68,5.001-2.312,7.756l0.513,1.088
				l10.445,21.536c1.121,2.308,0.693,5.009-1.063,6.883l-0.016,0.024c-4.204,4.481-8.078,9.394-11.554,14.743
				c-1.853,2.852-3.521,5.751-5.089,8.716c-1.061,2.073-3.208,3.334-5.529,3.262l-23.556-0.808c-3.223-0.121-6,2.274-6.371,5.442
				l-3.077,25.777c-0.083,0.735-0.016,1.461,0.125,2.127c0.526,2.173,2.259,3.979,4.527,4.521l17.267,3.97
				c2.109,0.51,3.797,2.109,4.422,4.13c0.157,0.532,0.255,1.099,0.27,1.683c0.166,14.104,3.159,28,8.779,40.946
				c0.985,2.184,0.481,4.727-1.109,6.457c-0.23,0.244-0.487,0.473-0.768,0.685l-16.952,12.778c-2.457,1.849-3.126,5.254-1.559,7.923
				l0.307,0.522l13.011,21.84C1363.553,1559.64,1366.987,1560.65,1369.867,1559.256z M1509.198,1427.396
				c2.784,3.173,5.388,6.731,7.73,10.693c4.454,7.56,7.342,20.955,6.301,29.682c-0.106,0.937-0.237,1.855-0.368,2.775
				c-8.673,55.875-78.244,69.992-107.895,20.903c-3.864-6.424-6.55-16.817-6.81-25.42c-0.032-1.994,0.021-3.897,0.251-5.578
				c0.992-7.933,3.179-15.053,6.326-21.334C1432.701,1403.35,1481.198,1395.817,1509.198,1427.396z"/>
		</g>
	</g>
	<path style="fill:#7999E2;" d="M1023.806,688.951c0,0-22.394-0.478-23.152,21.396h47.064c0,0,4.935-16.322,19.357-10.698V688.95
		L1023.806,688.951z"/>
	<path style="fill:#AEC3FF;" d="M1023.806,688.951c0,0,39.852,3.796,41.371,37.955c1.518,34.16,0,102.478,0,102.478l30.364-11.386
		l24.291,11.386V725.388c0,0-2.277-31.123-34.918-36.437H1023.806z"/>
	<g>
		<path style="fill:#233862;" d="M1623.44,710.396h-83.839c-5.807-4.077-16.749-12.992-27.146-28.182
			c-2.004-2.915-3.974-6.058-5.887-9.451C1495.81,653.725,1595.315,697.688,1623.44,710.396z"/>
		<g>
			<path style="fill:#FFB27D;" d="M1571.75,896.924c2.247,2.612,2.516,5.515,1.372,8.604c-0.001,0.013-0.009,0.031-0.022,0.042
				c-2.113,5.714-9.008,12.063-17.008,18.396c-1.022,0.813-1.932,1.553-2.725,2.239c-0.208,0.18-0.416,0.36-0.612,0.541
				c-0.161,0.139-0.316,0.286-0.471,0.419c-7.468,6.787-4.687,8.373-18.112,22.156c-15.309,15.705-25.774,15.916-28.74,14.455
				c-2.51-1.246,2.666-9.596,8.401-18.982c0.278-0.452,0.55-0.911,0.835-1.368c0.765-1.248,1.523-2.515,2.282-3.769
				c6.724-11.297,5.055-16.632,3.599-33.526c-1.183-13.728-20.802-76.796-20.802-76.796l29.158-4.811
				c0,0,8.417,50.169,18.026,57.955c5.139,4.15,10.922,4.242,15.866,7.326c0.35,0.214,0.692,0.434,1.029,0.66
				C1566.636,892.354,1569.497,894.306,1571.75,896.924z"/>
			<path style="fill:#233862;" d="M1571.75,896.924c2.247,2.612,2.516,5.515,1.372,8.604c-0.001,0.013-0.009,0.031-0.022,0.042
				c-2.578,5.706-9.301,12.023-17.035,18.337c-1.011,0.827-1.903,1.587-2.697,2.297c-0.208,0.18-0.416,0.36-0.612,0.541
				c-0.161,0.139-0.316,0.286-0.471,0.419c-7.468,6.787-4.687,8.373-18.112,22.156c-15.309,15.705-25.774,15.916-28.74,14.455
				c-2.51-1.246,2.666-9.596,8.401-18.982c2.966-1.063,16.747-6.548,27.23-19.77c9.233-11.613,15.442-26.573,21.734-35.22
				c0.35,0.214,0.692,0.434,1.029,0.66C1566.636,892.354,1569.497,894.306,1571.75,896.924z"/>
			<path style="fill:#FFB27D;" d="M1337.043,877.078c-1.862,8.977-14.665,7.387-28.957,3.788c-14.292-3.6-10.918,0.583-31.278-1.816
				c-20.36-2.399-26.479-10.04-27.079-13.074c-0.537-2.692,9.537-3.569,20.345-4.737c1.359-0.143,2.725-0.302,4.09-0.46
				c12.203-1.444,21.188-9.249,32.308-15.631c10.533-6.046,26.364-30.871,26.364-30.871l27.927,2.41c0,0-14.82,22.169-20.56,31.812
				c-3.376,5.672-3.252,13.204-2.877,19.023C1337.52,870.683,1337.703,873.916,1337.043,877.078z"/>
			<path style="fill:#233862;" d="M1308.086,880.865c-14.292-3.6-10.918,0.583-31.278-1.816
				c-20.36-2.399-26.479-10.04-27.079-13.074c-0.537-2.692,9.537-3.569,20.345-4.737l0.1,0.208c0,0,12.158,8.75,29.116,9.276
				c13.821,0.434,28.49-3.423,38.036-3.202c0.194,3.163,0.377,6.396-0.283,9.557
				C1335.181,886.055,1322.378,884.464,1308.086,880.865z"/>
			<path style="fill:#233862;" d="M1540.183,851.724c0,0-1.947,1.264-4.851,2.87c-3.462,1.901-8.278,4.281-12.73,5.534
				c-4.76,1.332-9.621,1.674-13.105,1.708c-3.029,0.023-5.021-0.182-5.021-0.182l-33.465-92.025l-6.047-16.636l-6.433-17.706
				l-2.243-6.16l-10.896-29.969c0,0,26.633-68.285,53.789-35.73c3.302,3.962,6.399,9.735,9.303,16.818
				c1.981,4.828,3.86,10.271,5.659,16.169c1.344,4.43,2.642,9.109,3.895,13.983c3.382,13.254,6.376,27.896,8.995,42.597
				C1535.765,802.079,1540.183,851.724,1540.183,851.724z"/>
			<path style="fill:#2B478B;" d="M1718.882,702.3c-1.515,3.815-4.168,6.456-7.743,8.096H1587.63
				c-29.719-6.149-58.128-19.744-75.174-28.182c-1.412-0.706-2.732-1.366-3.974-1.97c-5.818-2.892-9.826-4.862-11.467-5.204
				c-10.327-2.152-15.633,14.666-24.378,35.355c-1.787,4.213-3.7,8.574-5.841,12.98c-1.526,3.143-4.396,7.208-8.267,11.91
				c-0.718,0.865-1.458,1.754-2.243,2.665c-30.026,35.07-107.329,100.383-107.329,100.383s-0.911,0-2.38-0.034
				c-4.725-0.091-15.269-0.524-20.313-2.46c-2.903-1.116-5.056-2.357-6.581-3.415c-2.221-1.583-3.131-2.813-3.131-2.813
				s92.503-180.863,140.395-230.132v-0.011c0.695-0.717,1.378-1.4,2.061-2.049c5.227-5.113,9.872-8.483,13.732-9.701
				c16.316-5.136,121.881,0.592,121.881,0.592l3.37-5.477l5.637-0.398l0.968-0.068l4.703-0.341h0.011l6.49-0.456l9.645-0.683
				l26.087-1.856l4.189-0.296l48.233-3.427c0,0,2.197,4.965,5.169,13.185c1.162,3.211,2.438,6.912,3.746,11.011
				C1721.478,626.432,1731.521,670.36,1718.882,702.3z"/>
			<path style="fill:#233862;" d="M1750.854,395.514c-24.104-20.575-41.298-25.665-43.689-58.242
				c-1.298-17.683-25.039-76.175-65.199-71.063c-3.358,0.433-6.74,0.729-10.122,0.592c-4.691-0.182-12.435,0.444-20.405,5.124
				c-19.334,11.318-54.939,115.982-30.937,152.761c4.304,6.604,10.532,11.022,19.141,12.309c1.014,0.569,2.038,1.149,3.097,1.742
				h0.012c4.315,2.425,9.063,5.09,14.085,7.937c28.375,15.998,65.529,37.154,84.557,47.846h0.011
				c1.15,0.649,2.231,1.264,3.245,1.833c2.209,1.229,4.076,2.266,5.534,3.074c2.231,1.218,3.529,1.902,3.632,1.902
				c0,0,4.896,1.89,11.773,3.313c9.565,1.992,22.967,3.108,32.304-2.995c3.689-2.414,7.15-5.397,10.226-8.858
				C1787.428,471.189,1792.518,431.063,1750.854,395.514z"/>
			<path style="fill:#FFB27D;" d="M1631.381,419.538c-0.166,0.106,18.51,6.63,31.066,1.174
				c11.813-5.121,20.871-24.434,20.697-24.445c-5.356-0.285-11.204-5.01-15.517-35.774l-2.287,0.803l-38.452,13.53
				c0,0,2.691,12.327,4.406,24.057C1632.739,408.731,1633.485,418.162,1631.381,419.538z"/>
			<path style="fill:#ED975D;" d="M1626.889,374.826c0,0,1.639,8.639,3.913,20.985c22.059-3.81,31.353-22.626,34.539-34.515
				L1626.889,374.826z"/>
			<path style="fill:#FFB27D;" d="M1621.09,387.001c0,0,52.527-6.673,47.867-39.32c-4.658-32.647-1.018-55.496-34.751-52.615
				c-33.734,2.88-38.458,16.266-39.554,27.541C1593.558,333.881,1607.307,387.896,1621.09,387.001z"/>
			<path style="fill:#233862;" d="M1596.691,304.743c0,0,33.389,29.187,56.223,31.682c22.833,2.495,31.536-4.779,31.536-4.779
				s-13.391-11.278-21.368-29.382c-2.351-5.336-7.372-9.022-13.178-9.564C1633.598,291.177,1602.672,290.316,1596.691,304.743z"/>
			<path style="fill:#233862;" d="M1617.709,302.299c0,0-11.314,10.787-14.911,18.821c-3.471,7.753-4.626,26.348-1.958,33.755
				c0,0-17.27-34.17-7.239-50.642C1604.236,286.767,1617.709,302.299,1617.709,302.299z"/>
			<path style="fill:#AEC3FF;" d="M1586.647,496.53c0.837,106.237-0.158,84.032,11.391,94.194
				c2.783,2.446,10.644,3.949,20.999,4.706c32.557,2.392,89.854-2.571,92.073-8.575c7.66-20.775,2.402-27.284,8.896-59.128
				c0.678-3.387,1.512-7.052,2.489-11.043c5.381-21.865,10.521-29.28-7.773-64.597c-16.59-31.991-33.876-57.982-35.454-57.061
				c-44.549,26.022-47.971,3.862-47.971,3.862S1586.234,444.71,1586.647,496.53z"/>
			<path style="fill:#2B478B;" d="M1540.183,851.724c0,0-1.947,1.264-4.851,2.87c-3.462,1.901-8.278,4.281-12.73,5.534
				c-4.76,1.332-9.621,1.674-13.105,1.708c-3.029,0.023-5.021-0.182-5.021-0.182l-33.465-92.025l9.804-16.636l25.096-42.597
				l8.232-13.983c1.344,4.43,2.642,9.109,3.895,13.983c3.382,13.254,6.376,27.896,8.995,42.597
				C1535.765,802.079,1540.183,851.724,1540.183,851.724z"/>
			<path style="fill:#AEC3FF;" d="M1631.295,398.883c0,0-45.703,7.417-51.202,27.034c-5.499,19.616-37.858,134.936-37.858,134.936
				s23.177,4.333,33.973-6.312c10.797-10.645,38.005-99.199,38.005-99.199L1631.295,398.883z"/>
			<path style="fill:#95B3EF;" d="M1619.037,595.43c32.557,2.392,89.854-2.571,92.073-8.575c7.66-20.775,2.402-27.284,8.896-59.128
				l-15.398-44.35c0,0,2.25,49.282-12.37,62.137c-14.604,12.855-59.659,24.593-66.798,35.37
				C1621.996,586.055,1619.72,591.25,1619.037,595.43z"/>
			<path style="fill:#FFB27D;" d="M1656.503,574.974c0,0-32.085-7.382-37.29-4.566c-5.205,2.815-17.95,13.111-19.563,16.714
				c-1.612,3.603,11.563-2.662,15.842-3.777c2.771-0.722,10.034,1.859,13.629,3.086c15.131,5.163,24.443,2.627,24.443,2.627
				L1656.503,574.974z"/>
			<path style="fill:#AEC3FF;" d="M1679.295,395.004c0,0,43.13,2.962,57.92,23.901c20.82,29.475,61.649,154.753,37.627,171.253
				c-27.055,18.581-122.56,4.046-122.56,4.046s-3.076-14.894,1.401-22.056c4.478-7.162,76.492-18.274,79.836-21.571
				c3.343-3.296-41.044-65.033-40.973-74.993C1692.617,465.626,1679.295,395.004,1679.295,395.004z"/>
			<path style="fill:#FFB27D;" d="M1617.595,579.34c0,0-6.795,8.637-9.01,9.659c-2.214,1.021-3.638,0.753-3.638,0.753l4.594-8.135
				L1617.595,579.34z"/>
			<path style="fill:#FFB27D;" d="M1619.213,570.407l-19.643,9.368c0,0,0.823,1.369,3.234,1.275
				c2.411-0.093,8.507-2.273,8.507-2.273L1619.213,570.407z"/>
		</g>
		<g>
			<g>
				<polygon style="fill:#F99746;" points="1612.773,598.172 1457.921,597.079 1412.155,480.912 1566.77,482.003 				"/>
				<polygon style="fill:#ED7D2B;" points="1456.138,592.553 1660.622,593.996 1660.59,598.509 1457.921,597.079 				"/>
			</g>
			<path style="fill:#FFFFFF;" d="M1497.42,539.436c-1.139-4.08,1.238-7.365,5.311-7.336s8.296,3.36,9.435,7.44
				c1.14,4.08-1.238,7.365-5.311,7.336C1502.783,546.847,1498.559,543.516,1497.42,539.436z"/>
		</g>
	</g>
	<g>
		<g>
			<path style="fill:#2B478B;" d="M786.95,1833.845h625.63c43.517,0,78.793-35.277,78.793-78.794v-3.286
				c0-43.517-35.276-78.794-78.793-78.794H786.95c-43.517,0-78.794,35.277-78.794,78.794v3.286
				C708.156,1798.567,743.434,1833.845,786.95,1833.845z"/>
			<path style="fill:#FFEDDC;" d="M1141.521,1732.006l-0.562,35.159c-0.497,31.1,24.317,56.719,55.417,57.216l415.81,6.643
				l0.112-7.006c-23.328-12.133-39.078-36.695-38.63-64.772l0.197-12.365c0.448-28.077,16.977-52.124,40.679-63.506l0.003-0.143
				l-415.81-6.642C1167.638,1676.093,1142.019,1700.906,1141.521,1732.006z"/>
			<g>
				<path style="fill:#1B3770;" d="M1623.072,1833.845h-438.061c-28.255,0-50.387-35.356-50.387-80.49s22.132-80.489,50.387-80.489
					h438.061c3.638,0,6.587,2.949,6.587,6.586c0,3.638-2.949,6.587-6.587,6.587h-438.061c-20.172,0-37.214,30.828-37.214,67.316
					c0,36.489,17.042,67.316,37.214,67.316h438.061c3.638,0,6.587,2.949,6.587,6.587S1626.71,1833.845,1623.072,1833.845z"/>
			</g>
			<g>
				<rect x="1264.975" y="1715.767" style="fill:#E8C2A3;" width="316.306" height="0.951"/>
			</g>
			<g>
				<rect x="1432.916" y="1730.415" style="fill:#E8C2A3;" width="143.012" height="0.951"/>
			</g>
			<g>
				<rect x="1326.447" y="1780.374" style="fill:#E8C2A3;" width="249.48" height="0.951"/>
			</g>
		</g>
		<path style="fill:#F78248;" d="M1346.807,1716.242c0,0,13.274,5.555,14.852,24.304s0,28.738,0,28.738l-16.023-7.623l-16.177,7.623
			v-29.31c0,0-0.592-23.732-22.672-23.732H1346.807z"/>
	</g>
	<g id="girl_2_3_">
		<path style="fill:#233862;" d="M905.114,1085.405c0,0,32.593-10.752,57.643,19.39c25.05,30.142,61.757,70.859,52.229,82.383
			c-9.529,11.523-11.427,21.021,2.237,28.422c13.664,7.401,20.875,17.205,0.759,47.974c-13.13,20.082-15.926-6.646-55.794-5.325
			c-39.868,1.32-70.361-18.791-83.69-7.738C828.195,1292.217,835.515,1084.267,905.114,1085.405z"/>
		<path style="fill:#ED985F;" d="M892.659,1239.266c0,0-91.611,43.326-109.239,42.557c-17.627-0.77-131.344-37.84-131.344-37.84
			l2.766,18.686c0,0,83.825,48.21,113.13,50.945c28.853,2.693,127.508-25.894,137.033-31.93
			C914.53,1275.647,920.338,1245.374,892.659,1239.266z"/>
		<path style="fill:#FFB27D;" d="M881.258,1281.734c8.529,5.917,19.223,10.797,32.648,13.895
			c50.323,11.627,69.608-30.905,76.851-60.101c-6.862-3.928-13.32-4.793-17.049-5.238c-3.637-0.429-7.462-0.714-10.63-0.871
			c-5.651-4.328-14.071-22.041-15.933-49.545l-2.368,0.635l-39.66,10.855c0,0,1.817,12.607,2.707,24.522
			c0.689,9.325,0.797,18.236-0.97,20.417c-3.095,0.671-4.952,1.109-4.952,1.109s-0.003,0.014-0.02,0.038
			C901.349,1238.323,889.843,1257.246,881.258,1281.734z"/>
		<path style="fill:#ED985F;" d="M905.114,1191.371c0,0,1.824,12.597,2.707,24.523c22.47-2.25,32.897-23.643,36.957-35.377
			L905.114,1191.371z"/>
		<path style="fill:#FFB27D;" d="M898.405,1203.206c0,0,53.333-2.943,50.989-36.128c-2.344-33.185,2.961-55.914-31.19-55.438
			s-39.865,13.605-41.777,24.872C874.516,1147.778,884.472,1203.116,898.405,1203.206z"/>
		<path style="fill:#233862;" d="M876.688,1117.948c7.518-10.571,13.898-8.827,17.6-6.077c27.968-18.096,48.428,4.226,48.428,4.226
			c5.271,23.553,23.419,35.96,23.419,35.96s-9.279,6.694-32.076,2.544c-6.963-1.268-13.417-5.689-19.028-11.211
			c10.148,14.534,23.262,24.59,23.262,24.59c-27.624-10.441-41.028-46.857-42.379-50.713c-3.043,3.153-8.998,9.957-10.506,16.315
			c-2.049,8.64-10.89,22.147-16.002,21.919C869.405,1155.501,865.413,1133.803,876.688,1117.948z"/>
		<path style="fill:#FFEDDC;" d="M877.062,1279.158c-2.88,25.699,1.401,37.04,28.057,96.397
			c22.522,50.169-3.041,95.339-3.041,95.339s54.792,44.055,94.132,61.1c21.862,9.485,38.965,10.624,39.227-8.768
			c0.296-21.941-10.008-49.61-18.651-75.401c-7.458-22.237-13.686-43.086-10.84-57.661c4.817-24.617,20.519-122.984,4.817-154.64
			c-5.636-11.375-27.771-12.399-52.048-11.397c-7.56,4.873-36.345,23.309-48.176,21.008c-0.125-0.022-0.353-0.08-0.661-0.148
			c-5.568-1.4-5.568-4.725-3.029-8.688c0.011-0.011-10.931,0.114-25.597,4.1c-16.704,4.555-32.542,16.943-32.542,16.943
			S860.165,1272.019,877.062,1279.158z"/>
		<path style="fill:#1B3770;" d="M895.504,1586.833c-7.212-0.814-13.705-4.762-17.737-10.797c-0.64-0.958-1.324-1.987-2.049-3.088
			c-15.096-22.852-20.969-92.834-54.923-167.39c-8.271-18.15-37.958-21.414-46.052-41.934c0,0-19.924-66.505,38.135-68.467
			c58.059-1.962,155.492,185.046,157.03,204.658C971.398,1518.815,1008.292,1599.56,895.504,1586.833z"/>
		<path style="fill:#233862;" d="M664.743,1585.304h82.637c0,0,3.089-13.18-2.336-22.149c-4.802-7.935-2.962-12.456,0.595-19.021
			c-3.743,1.533-8.586,2.927-13.918,2.622c-4.117-0.237-8.471-2.105-12.289-4.323c-3.557,4.055-18.786,21.314-23.545,24.734
			C690.486,1571.047,666.406,1569.664,664.743,1585.304z"/>
		<path style="fill:#1B3770;" d="M772.853,1314.383c-4.976,37.305-24.407,155.049-58.685,212.493
			c-11.051,18.52,27.843,28.902,28.053,28.847c5.217-1.364,13.907-9.681,17.912-13.291c27.829-25.08,84.32-96.097,84.32-153.032
			c0-27.762,0.487-80.781-19.7-94.257C812.321,1286.844,774.83,1299.566,772.853,1314.383z"/>
		<path style="fill:#2B478B;" d="M829.364,1364.01c8.096,20.519,30.846,18.014,39.124,36.163c0.353,0.763,0.694,1.538,1.036,2.3
			c4.247,9.417,8.255,18.834,12.047,28.147c7.914,19.438,19.687,60.109,28.534,93.062c6.012,22.363,10.669,41.174,11.842,47.356
			c1.822,9.52,4.942,16.853,4.942,16.853c126.583,19.527,110.619-67.692,103.674-88.074
			c-6.331-18.617-116.655-210.866-174.714-208.896C797.79,1292.879,829.364,1364.01,829.364,1364.01z"/>
		<path style="fill:#1E3D7C;" d="M725.404,1585.304h82.636c0,0,3.09-13.18-2.335-22.149c-4.803-7.935-2.962-12.456,0.595-19.021
			c-3.744,1.533-8.586,2.927-13.918,2.622c-4.117-0.237-8.471-2.105-12.289-4.323c-3.556,4.055-18.786,21.314-23.544,24.734
			C751.147,1571.047,727.067,1569.664,725.404,1585.304z"/>
		<path style="fill:#1E3D7C;" d="M869.524,1402.473c4.247,9.417,8.255,18.834,12.047,28.147
			c7.914,19.438,19.687,60.109,28.534,93.062c0.068,0.137,0.148,0.273,0.217,0.41c32.907-51.318-14.507-148.536-14.507-148.536
			C884.509,1380.736,875.844,1390.358,869.524,1402.473z"/>
		<path style="fill:#2B478B;" d="M821.091,1311.738c-4.976,37.305-11.984,157.693-46.262,215.138
			c-11.051,18.52,27.843,28.902,28.053,28.847c5.216-1.364,13.907-9.681,17.912-13.291c27.829-25.08,84.32-96.097,84.32-153.032
			c0-27.762-32.58-78.555-52.767-92.03C839.915,1289.07,823.067,1296.922,821.091,1311.738z"/>
		<g>
			<g>
				<polygon style="fill:#EA642F;" points="637.464,1199.985 654.597,1169.074 668.043,1206.596 748.506,1279.923 669.793,1295.967 
									"/>
				<polygon style="fill:#F78248;" points="732.819,1220.598 764.227,1316.49 669.793,1295.967 637.464,1199.985 				"/>
				<polygon style="fill:#FCECDB;" points="729.192,1218.342 641.341,1198.617 637.464,1199.985 728.551,1219.675 				"/>
				<polygon style="fill:#EAC5A4;" points="729.192,1218.342 730.243,1220.041 728.551,1219.675 				"/>
			</g>
			<polygon style="fill:#EFDECE;" points="637.464,1199.985 655.989,1170.577 668.102,1204.625 641.341,1198.617 			"/>
		</g>
		<path style="fill:#FFB27D;" d="M704.727,1237.25c2.978-0.572,9.367-2.981,15.835-4.76c-1.932-1.499-4.081-3.342-4.679-5.232
			c-1.154-3.646-1.923-4.818,1.924-3.664c3.847,1.154,17.307,7.327,17.307,7.327s-0.028,0.015-0.034,0.018
			c7.648,2.234,14.694,13.044,14.694,13.044s94.681,33.281,106.072,33.854c17.622,0.885,134.911-42.308,134.911-42.308
			c27.68,6.108,21.47,40.119,11.946,46.155c-9.524,6.035-93.922,36.737-143.94,37.315c-25.334,0.293-117.488-58.938-117.488-58.938
			s-10.771-4.923-19.235-3.384c-8.463,1.539-28.083,0-32.315-6.925C685.492,1242.828,699.726,1238.212,704.727,1237.25z"/>
		<path style="fill:#FFEDDC;" d="M930.328,1256.829c0,0,10.49,33.209,46.517,40.765c0,0,59.494-18.329,29.872-58.859
			C1006.717,1238.734,977.428,1216.972,930.328,1256.829z"/>
		<path style="fill:#FFB27D;" d="M643.255,1239.751l0.006,0.007c-0.024-0.92,0.069-1.827,0.315-2.7c0,0,8.486-13.423,11.266-13.972
			c8.466-1.673,8.466,9.475,6.67,16.665c-1.25,5.007-3.076,12.255-5.651,14.851l3.598,10.682
			C642.227,1258.248,643.255,1239.751,643.255,1239.751z"/>
		<path style="fill:#2B478B;" d="M996.21,1531.994c21.862,9.485,38.965,10.624,39.227-8.768
			c0.296-21.941-10.008-49.61-18.651-75.401c0,0-11.899,8.21-37.518-10.577C959.056,1422.434,984.539,1498.984,996.21,1531.994z"/>
	</g>
	<g>
		<path style="fill:#F78248;" d="M513.979,1792.368c0,1.73,0.102,3.45,0.319,5.124c0.649,5.374,2.311,10.43,4.782,14.984
			c1.935,3.553,4.372,6.786,7.208,9.621c7.618,7.606,18.116,12.31,29.73,12.31h591.254c23.217,0,42.05-18.822,42.05-42.039
			c0-11.614-4.703-22.124-12.32-29.73c-7.606-7.617-18.116-12.32-29.73-12.32H556.018
			C532.801,1750.317,513.979,1769.14,513.979,1792.368z"/>
		<path style="fill:#F78248;" d="M559.077,1742.712h202.719c3.549,0,6.452-2.903,6.452-6.452l0,0c0-3.549-2.903-6.453-6.452-6.453
			H559.077c-3.549,0-6.453,2.904-6.453,6.453l0,0C552.625,1739.809,555.528,1742.712,559.077,1742.712z"/>
		
			<rect x="570.273" y="1742.712" transform="matrix(-1 -1.224647e-16 1.224647e-16 -1 1162.5205 3493.0342)" style="fill:#EA642F;" width="21.974" height="7.61"/>
		<path style="fill:#EA642F;" d="M519.08,1812.477c1.935,3.553,4.372,6.786,7.208,9.621c7.618,7.606,18.116,12.31,29.73,12.31
			h125.24v-21.931H519.08z"/>
		<path style="fill:#F99746;" d="M1267.583,1780.048v24.629c0,2.698-0.364,5.317-1.036,7.8
			c-3.416,12.639-14.961,21.931-28.682,21.931H621.97c-13.721,0-25.267-9.292-28.683-21.931c-0.672-2.482-1.036-5.102-1.036-7.8
			v-24.629c0-16.419,13.299-29.729,29.719-29.729h615.895C1254.283,1750.318,1267.583,1763.629,1267.583,1780.048z"/>
		<path style="fill:#EF873A;" d="M1266.546,1812.477c-3.416,12.639-14.961,21.931-28.682,21.931H621.97
			c-13.721,0-25.267-9.292-28.683-21.931H1266.546z"/>
		<g>
			<path style="fill:#CDE0FB;" d="M1206.413,1792.516c0,13.061,4.748,24.732,12.229,32.464c0.171,0.17,0.331,0.341,0.501,0.512
				c5.784,5.762,13.117,9.212,21.099,9.212c12.468,0,43.371-18.811,62.523-31.302c9.542-6.229,16.169-10.886,16.169-10.886
				s-6.627-4.656-16.169-10.885c-19.152-12.503-50.055-31.313-62.523-31.313c-3.609,0-7.083,0.706-10.351,2.005
				c-5.5,2.209-10.396,6.126-14.255,11.25c-4.259,5.624-7.288,12.707-8.563,20.575c-0.011,0.091-0.034,0.182-0.034,0.272
				C1206.629,1787.027,1206.413,1789.738,1206.413,1792.516z"/>
			<path style="fill:#A6C7ED;" d="M1206.413,1792.516c0,13.061,4.748,24.732,12.229,32.464l94.792-32.611l-106.395-7.948
				C1206.629,1787.027,1206.413,1789.738,1206.413,1792.516z"/>
			<path style="fill:#E3F0FF;" d="M1215.636,1763.572l94.564,25.824l-80.309-37.074
				C1224.392,1754.531,1219.496,1758.448,1215.636,1763.572z"/>
			<path style="fill:#2E3552;" d="M1296.594,1792.516c0,5.021,2.573,9.303,6.171,10.886c9.542-6.229,16.169-10.886,16.169-10.886
				s-6.627-4.656-16.169-10.885C1299.167,1783.202,1296.594,1787.483,1296.594,1792.516z"/>
		</g>
	</g>
	<g>
		<path style="fill:#FFB27D;" d="M1956.703,1196.576c0,0-2.87-6.454-4.729-9.511s-9.799-12.011-11.15-9.983
			c-1.353,2.027-6.759,15.674-3.887,19.494c2.872,3.821-0.186,10.47,14.1,14.495L1956.703,1196.576z"/>
		<path style="fill:#95B3EF;" d="M2115.45,1155.82c0,0-73.126,61.041-101.639,55.391c-22.296-4.419-56.515-16.152-56.515-16.152
			l-6.843,17.504c0,0,30.687,41.627,62.682,41.9c50.011,0.427,86.958-21.652,86.958-21.652L2115.45,1155.82z"/>
		<path style="fill:#1C3D72;" d="M2243.696,1799.666c0,0-2.123,34.243-8.748,34.734c-0.882,0.065-33.603,0.065-33.603,0.065
			l-41.77-0.242c0,0,0.273-10.064,12.482-12.192c12.21-2.128,32.646-10.708,40.043-26.846
			C2219.882,1778.209,2243.696,1799.666,2243.696,1799.666z"/>
		<path style="fill:#2B478B;" d="M2246.104,1802.043c0,0-12.697,4.248-22.611,4.248c-11.058,0-21.108-3.012-21.108-3.012
			s-2.392-23.119-15.546-74.057c-6.898-26.698-16.747-61.027-30.76-103.684c-38.744-117.891-50.526-186.856-51.602-193.388
			c-0.057-0.343-0.08-0.515-0.08-0.515l0.126-0.058l119.114-52.299c0,0-14.722,162.479,4.062,224.845
			c2.631,8.717,4.884,18.875,6.817,29.879C2246.378,1701.746,2246.104,1802.043,2246.104,1802.043z"/>
		<path style="fill:#233862;" d="M2186.838,1729.223c-6.898-26.698-16.747-61.027-30.76-103.684
			c-38.744-117.891-50.526-186.856-51.602-193.388c0.012-0.194,0.023-0.378,0.046-0.572l119.114-52.299
			c0,0-14.722,162.479,4.062,224.845C2230.329,1612.842,2186.838,1729.223,2186.838,1729.223z"/>
		<path style="fill:#1C3D72;" d="M2150.661,1799.666c0,0-2.123,34.243-8.748,34.734c-0.881,0.065-33.602,0.065-33.602,0.065
			l-41.77-0.242c0,0,0.273-10.064,12.482-12.192c12.21-2.128,32.646-10.708,40.042-26.846
			C2126.848,1778.209,2150.661,1799.666,2150.661,1799.666z"/>
		<path style="fill:#2B478B;" d="M2083.128,1383.108c0,0-1.547,105.289,16.67,234.564c18.217,129.276,12.042,184.151,12.042,184.151
			s12.515,4.056,17.566,4.467c12.869,1.049,26.063-3.016,26.063-3.016s26.074-129.324,18.599-194.03
			c-7.477-64.705,35.705-222.033,35.705-222.033L2083.128,1383.108z"/>
		<path style="fill:#FFB27D;" d="M2167.589,1136.719l-23.251,15.247l-21.179-5.989c-3.871-5.522-4.896-16.169-4.953-25.393
			c-0.057-9.154,0.831-16.908,0.831-16.908l31.37-13.846l11.705-5.158c-0.034,0.182-0.911,9.609-1.036,10.987
			C2158.891,1120.106,2167.589,1136.719,2167.589,1136.719z"/>
		<path style="fill:#AFCDFB;" d="M2082.594,1412.38c28.941,27.942,138.469,23.242,145.219-7.544
			c6.738-30.786-7.361-262.075-56.797-276.604c-10.26-3.016-65.104,14.711-65.104,14.711s-8.606,22.514-14.25,51.175
			c-1.095,5.58-4.293,64.685-6.686,119.98c-1.116,25.86-2.061,50.896-2.543,69.224
			C2081.993,1400.49,2081.972,1411.768,2082.594,1412.38z"/>
		<path style="fill:#FCA56B;" d="M2158.73,1096.092c-6.365,10.761-28.693,20.178-40.524,24.492
			c-0.057-9.154,0.831-16.908,0.831-16.908l31.37-13.846C2157.342,1089.738,2161.565,1091.287,2158.73,1096.092z"/>
		<path style="fill:#FFB27D;" d="M2107.205,1101.765c0,0,50.544,15.768,59.879-15.86c9.334-31.628,22.145-50.894-9.732-62.298
			c-31.877-11.404-41.737-1.194-47.42,8.605C2104.248,1042.01,2094.297,1096.849,2107.205,1101.765z"/>
		<path style="fill:#163560;" d="M2111.916,1029.164c0,0,3.224,36.805,10.835,35.207s15.989-5.016,14.875,6.079
			c-1.114,11.094,7.401,30.112,18.376,30.067c23.539-0.098,49.115-60.498,42.671-71.952
			C2180.08,995.518,2085.043,988.848,2111.916,1029.164z"/>
		<path style="fill:#95B3EF;" d="M2119.352,1129.029c0.652-0.274,37.627-16.86,41.951-15.433s9.715,14.634,9.715,14.634
			l-65.107,14.72C2105.91,1142.95,2111.034,1132.531,2119.352,1129.029z"/>
		<g>
			<path style="fill:#1F4D84;" d="M1889.157,1308.152l207.269,195.146c4.063,3.825,9.186,5.044,11.385,2.708l6.996-7.431
				c2.199-2.336,0.674-7.376-3.389-11.201l-207.269-195.146c-4.063-3.825-9.186-5.044-11.385-2.709l-6.996,7.432
				C1883.569,1299.286,1885.095,1304.327,1889.157,1308.152z"/>
			<path style="fill:#F78248;" d="M2005.472,1417.664l90.954,85.634c4.063,3.825,9.186,5.044,11.385,2.708l6.996-7.431
				c2.199-2.336,0.674-7.376-3.389-11.201l-90.953-85.634L2005.472,1417.664z"/>
			<path style="fill:#1F4D84;" d="M1899.699,1075.744c-61.475-65.347-164.283-68.467-229.619-6.991
				c-0.865,0.809-1.719,1.629-2.551,2.46c-62.876,61.726-65.13,162.679-4.463,227.171c61.476,65.336,164.295,68.479,229.643,7.003
				c21.395-20.131,36.129-44.691,44.088-70.915C1953.182,1180.603,1941.056,1119.696,1899.699,1075.744z M1883.918,1296.05
				c-38.031,35.788-89.839,47.801-137.127,36.607c-27.533-6.524-53.527-20.905-74.377-43.063
				c-56.625-60.188-53.744-154.879,6.445-211.504c22.158-20.849,48.984-33.624,76.881-38.452
				c47.869-8.289,98.847,6.866,134.623,44.897C1946.999,1144.735,1944.107,1239.425,1883.918,1296.05z"/>
			<g style="opacity:0.5;">
				<path style="fill:#B3CFF9;" d="M1672.411,1289.593c20.848,22.159,46.847,36.542,74.383,43.069
					c47.281,11.187,99.095-0.83,137.129-36.613c60.187-56.624,63.074-151.318,6.443-211.512
					c-35.777-38.027-86.756-53.185-134.624-44.894c-27.896,4.824-54.729,17.603-76.882,38.444
					C1618.674,1134.712,1615.786,1229.406,1672.411,1289.593z"/>
			</g>
		</g>
		<path style="fill:#95B3EF;" d="M2082.434,1383.321c114.206-81.382,104.709-189.977,104.709-189.977
			c-41.742,23.543-83.162,75.598-102.166,120.753C2083.86,1339.958,2082.916,1364.993,2082.434,1383.321z"/>
		<g>
			<path style="fill:#FFB27D;" d="M1969.715,1346.261c-8.054-1.858-13.462-7.947-14.586-9.011c0,0-3.436,0.234,0.563,7.561
				c0.335,0.613,1.077,2.188,1.638,3.301c0.229,0.455-0.09,0.984-0.598,1.022c-4.648,0.354-9.319-1.485-18.273,0.382
				c-1.235,0.258-1.595,3.216-1.547,4.477c0.081,2.134-0.073,4.527,2.406,7.801c1.442,1.902,5.468,3.95,14.432,7.558
				c3.415,1.374,13.178,0.338,22.329-2.806l7.312-3.385l-2.268-13.589l-1.837,0.385
				C1976.369,1350.567,1972.756,1347.007,1969.715,1346.261z"/>
			<path style="fill:#AFCDFB;" d="M2151.699,1142.95c0,0,102.617,19.539-30.19,168.142
				c-21.241,23.766-135.997,54.711-135.997,54.711s-11.639-9.902-5.771-17.922c0,0,79.013-57.376,96.397-66.498
				c7.821-4.104,30.354-91.579,43.103-112.646C2131.989,1147.67,2151.699,1142.95,2151.699,1142.95z"/>
		</g>
		<path style="fill:#FFB27D;" d="M1953.922,1198.379c0,0-3.357-6.414-4.013-9.798c-0.655-3.383-4.881-13.252-6.623-14.989
			c-0.697-0.696-2.995,0.204-3.266,3.194c-0.118,1.302,0.52,3.669,1.647,6.491c1.836,4.592,1.534,10.819,2.172,12.896
			C1945.43,1201.344,1953.922,1198.379,1953.922,1198.379z"/>
	</g>
	<g>
		<g>
			<path style="fill:#699DEE;" d="M668.137,1672.971h496.64c24.267,0,43.938-19.672,43.938-43.938l0,0
				c0-24.267-19.672-43.938-43.938-43.938h-496.64c-24.267,0-43.938,19.672-43.938,43.938l0,0
				C624.198,1653.299,643.87,1672.971,668.137,1672.971z"/>
			<path style="fill:#FFEDDC;" d="M947.62,1617.297l-0.419,19.178c-0.37,16.965,18.148,30.939,41.358,31.211l310.32,3.623
				l0.083-3.821c-17.409-6.618-29.165-20.017-28.83-35.332l0.147-6.745c0.335-15.316,12.669-28.433,30.359-34.642l0.001-0.077
				l-310.319-3.624C967.11,1586.797,947.99,1600.332,947.62,1617.297z"/>
			<g>
				<path style="fill:#4B87DD;" d="M1307.001,1672.848H980.076c-21.086,0-37.604-19.286-37.604-43.906s16.518-43.906,37.604-43.906
					h326.925c2.715,0,4.916,1.609,4.916,3.594c0,1.983-2.201,3.593-4.916,3.593H980.076c-15.054,0-27.773,16.815-27.773,36.72
					s12.719,36.72,27.773,36.72h326.925c2.715,0,4.916,1.609,4.916,3.593C1311.917,1671.238,1309.716,1672.848,1307.001,1672.848z"
					/>
			</g>
			<g>
				<rect x="1039.753" y="1608.394" style="fill:#E8C2A3;" width="236.059" height="0.607"/>
			</g>
			<g>
				<rect x="1165.087" y="1616.385" style="fill:#E8C2A3;" width="106.73" height="0.607"/>
			</g>
			<g>
				<rect x="1085.63" y="1643.636" style="fill:#E8C2A3;" width="186.187" height="0.608"/>
			</g>
		</g>
	</g>
	<path style="fill:#2E3552;" d="M2546.89,1846.057H198.665c-2.052,0-3.731-1.679-3.731-3.731v-4.749
		c0-2.053,1.679-3.731,3.731-3.731H2546.89c2.053,0,3.731,1.679,3.731,3.731v4.749
		C2550.621,1844.378,2548.942,1846.057,2546.89,1846.057z"/>
</g>
</svg>
